
<svg width="539" height="292" viewBox="0 0 539 292" fill="none" xmlns="http://www.w3.org/2000/svg">
<path d="M289 180V289H3V3H289V110" stroke="#74C08E" stroke-width="5"/>
<path d="M111.5 116C111.5 114.067 113.067 112.5 115 112.5H534C535.933 112.5 537.5 114.067 537.5 116V177C537.5 178.933 535.933 180.5 534 180.5H115C113.067 180.5 111.5 178.933 111.5 177V116Z" stroke="#F4F5F6" stroke-width="3"/>
<path d="M160.807 152.334C161.148 152.334 161.44 152.48 161.683 152.772C161.926 153.015 162.024 153.307 161.975 153.648C161.683 158.271 159.809 162.286 156.354 165.693C152.947 169.051 148.567 170.73 143.214 170.73C137.617 170.73 132.97 168.832 129.271 165.036C125.621 161.24 123.796 156.276 123.796 150.144V138.756C123.796 132.624 125.621 127.66 129.271 123.864C132.97 120.068 137.617 118.17 143.214 118.17C148.519 118.17 152.826 119.776 156.135 122.988C159.493 126.2 161.415 130.142 161.902 134.814C161.999 135.787 161.561 136.274 160.588 136.274H155.186C154.456 136.274 154.018 135.787 153.872 134.814C153.434 132.186 152.29 129.996 150.441 128.244C148.64 126.443 146.231 125.543 143.214 125.543C139.905 125.543 137.155 126.735 134.965 129.12C132.775 131.505 131.68 134.741 131.68 138.829V150.144C131.68 154.232 132.775 157.468 134.965 159.853C137.155 162.189 139.905 163.357 143.214 163.357C146.28 163.357 148.738 162.481 150.587 160.729C152.485 158.928 153.604 156.641 153.945 153.867C154.042 152.845 154.48 152.334 155.259 152.334H160.807ZM171.981 149.414C171.981 144.401 173.465 140.386 176.434 137.369C179.403 134.303 183.15 132.77 187.676 132.77C192.153 132.77 195.876 134.303 198.845 137.369C201.862 140.386 203.371 144.401 203.371 149.414V154.159C203.371 159.172 201.862 163.187 198.845 166.204C195.876 169.221 192.153 170.73 187.676 170.73C183.15 170.73 179.403 169.221 176.434 166.204C173.465 163.187 171.981 159.172 171.981 154.159V149.414ZM179.792 155.035C179.792 157.858 180.522 160.072 181.982 161.678C183.442 163.235 185.34 164.014 187.676 164.014C190.012 164.014 191.886 163.235 193.297 161.678C194.757 160.072 195.487 157.858 195.487 155.035V148.465C195.487 145.642 194.757 143.452 193.297 141.895C191.886 140.289 190.012 139.486 187.676 139.486C185.34 139.486 183.442 140.289 181.982 141.895C180.522 143.452 179.792 145.642 179.792 148.465V155.035ZM216.477 170C215.99 170 215.577 169.854 215.236 169.562C214.944 169.221 214.798 168.808 214.798 168.321V135.252C214.798 134.765 214.944 134.352 215.236 134.011C215.577 133.67 215.99 133.5 216.477 133.5H220.93C221.417 133.5 221.806 133.67 222.098 134.011C222.439 134.352 222.609 134.765 222.609 135.252V137.661C224.848 134.4 228.206 132.77 232.683 132.77C237.063 132.77 240.372 134.279 242.611 137.296C244.85 140.265 245.969 144.304 245.969 149.414V168.321C245.969 168.808 245.799 169.221 245.458 169.562C245.166 169.854 244.777 170 244.29 170H239.837C239.35 170 238.937 169.854 238.596 169.562C238.304 169.221 238.158 168.808 238.158 168.321V148.465C238.158 145.642 237.428 143.452 235.968 141.895C234.557 140.289 232.683 139.486 230.347 139.486C228.011 139.486 226.137 140.265 224.726 141.822C223.315 143.379 222.609 145.594 222.609 148.465V168.321C222.609 168.808 222.439 169.221 222.098 169.562C221.806 169.854 221.417 170 220.93 170H216.477ZM271.713 170C267.528 170 264.608 169.051 262.953 167.153C261.299 165.255 260.471 162.311 260.471 158.32V140.435H255.434C254.948 140.435 254.534 140.289 254.193 139.997C253.901 139.656 253.755 139.243 253.755 138.756V135.252C253.755 134.765 253.901 134.352 254.193 134.011C254.534 133.67 254.948 133.5 255.434 133.5C257.332 133.5 258.646 133.184 259.376 132.551C260.155 131.918 260.544 130.702 260.544 128.901V125.762C260.544 125.275 260.69 124.862 260.982 124.521C261.323 124.18 261.737 124.01 262.223 124.01H266.457C266.944 124.01 267.358 124.18 267.698 124.521C268.039 124.862 268.209 125.275 268.209 125.762V133.5H275.582C276.069 133.5 276.458 133.67 276.75 134.011C277.091 134.352 277.261 134.765 277.261 135.252V138.756C277.261 139.243 277.091 139.656 276.75 139.997C276.458 140.289 276.069 140.435 275.582 140.435H268.209V157.152C268.209 159.391 268.501 160.899 269.085 161.678C269.669 162.457 270.983 162.846 273.027 162.846H275.582C276.069 162.846 276.458 163.016 276.75 163.357C277.091 163.698 277.261 164.111 277.261 164.598V168.321C277.261 168.808 277.091 169.221 276.75 169.562C276.458 169.854 276.069 170 275.582 170H271.713ZM293.515 155.327C293.515 157.906 294.27 159.999 295.778 161.605C297.287 163.211 299.185 164.014 301.472 164.014C304.83 164.014 307.215 162.554 308.626 159.634C309.162 158.953 309.746 158.612 310.378 158.612H315.05C315.829 158.612 316.218 159.001 316.218 159.78C316.218 160.121 316.121 160.534 315.926 161.021C314.661 164.33 312.69 166.788 310.013 168.394C307.337 169.951 304.49 170.73 301.472 170.73C296.995 170.73 293.248 169.221 290.23 166.204C287.213 163.187 285.704 159.172 285.704 154.159V149.414C285.704 144.401 287.189 140.386 290.157 137.369C293.175 134.303 296.922 132.77 301.399 132.77C305.828 132.77 309.527 134.303 312.495 137.369C315.464 140.435 316.948 144.377 316.948 149.195V152.626C316.948 153.113 316.778 153.526 316.437 153.867C316.097 154.159 315.683 154.305 315.196 154.305H293.515V155.327ZM309.283 148.757V147.954C309.283 145.326 308.553 143.258 307.093 141.749C305.633 140.24 303.735 139.486 301.399 139.486C299.063 139.486 297.165 140.24 295.705 141.749C294.245 143.258 293.515 145.326 293.515 147.954V148.757H309.283ZM329.986 170C329.5 170 329.086 169.854 328.745 169.562C328.453 169.221 328.307 168.808 328.307 168.321V135.252C328.307 134.765 328.453 134.352 328.745 134.011C329.086 133.67 329.5 133.5 329.986 133.5H334.439C334.926 133.5 335.315 133.67 335.607 134.011C335.948 134.352 336.118 134.765 336.118 135.252V137.661C338.357 134.4 341.715 132.77 346.192 132.77C350.572 132.77 353.882 134.279 356.12 137.296C358.359 140.265 359.478 144.304 359.478 149.414V168.321C359.478 168.808 359.308 169.221 358.967 169.562C358.675 169.854 358.286 170 357.799 170H353.346C352.86 170 352.446 169.854 352.105 169.562C351.813 169.221 351.667 168.808 351.667 168.321V148.465C351.667 145.642 350.937 143.452 349.477 141.895C348.066 140.289 346.192 139.486 343.856 139.486C341.52 139.486 339.647 140.265 338.235 141.822C336.824 143.379 336.118 145.594 336.118 148.465V168.321C336.118 168.808 335.948 169.221 335.607 169.562C335.315 169.854 334.926 170 334.439 170H329.986ZM385.223 170C381.037 170 378.117 169.051 376.463 167.153C374.808 165.255 373.981 162.311 373.981 158.32V140.435H368.944C368.457 140.435 368.043 140.289 367.703 139.997C367.411 139.656 367.265 139.243 367.265 138.756V135.252C367.265 134.765 367.411 134.352 367.703 134.011C368.043 133.67 368.457 133.5 368.944 133.5C370.842 133.5 372.156 133.184 372.886 132.551C373.664 131.918 374.054 130.702 374.054 128.901V125.762C374.054 125.275 374.2 124.862 374.492 124.521C374.832 124.18 375.246 124.01 375.733 124.01H379.967C380.453 124.01 380.867 124.18 381.208 124.521C381.548 124.862 381.719 125.275 381.719 125.762V133.5H389.092C389.578 133.5 389.968 133.67 390.26 134.011C390.6 134.352 390.771 134.765 390.771 135.252V138.756C390.771 139.243 390.6 139.656 390.26 139.997C389.968 140.289 389.578 140.435 389.092 140.435H381.719V157.152C381.719 159.391 382.011 160.899 382.595 161.678C383.179 162.457 384.493 162.846 386.537 162.846H389.092C389.578 162.846 389.968 163.016 390.26 163.357C390.6 163.698 390.771 164.111 390.771 164.598V168.321C390.771 168.808 390.6 169.221 390.26 169.562C389.968 169.854 389.578 170 389.092 170H385.223ZM403.573 170C403.086 170 402.673 169.854 402.332 169.562C402.04 169.221 401.894 168.808 401.894 168.321V120.652C401.894 120.165 402.04 119.752 402.332 119.411C402.673 119.07 403.086 118.9 403.573 118.9H408.026C408.513 118.9 408.902 119.07 409.194 119.411C409.535 119.752 409.705 120.165 409.705 120.652V137.661C411.944 134.4 415.302 132.77 419.779 132.77C424.159 132.77 427.468 134.279 429.707 137.296C431.946 140.265 433.065 144.304 433.065 149.414V168.321C433.065 168.808 432.895 169.221 432.554 169.562C432.262 169.854 431.873 170 431.386 170H426.933C426.446 170 426.033 169.854 425.692 169.562C425.4 169.221 425.254 168.808 425.254 168.321V148.465C425.254 145.594 424.524 143.379 423.064 141.822C421.653 140.265 419.779 139.486 417.443 139.486C415.156 139.486 413.282 140.289 411.822 141.895C410.411 143.452 409.705 145.642 409.705 148.465V168.321C409.705 168.808 409.535 169.221 409.194 169.562C408.902 169.854 408.513 170 408.026 170H403.573ZM473.988 133.5C474.475 133.5 474.864 133.67 475.156 134.011C475.497 134.352 475.667 134.765 475.667 135.252V168.321C475.667 168.808 475.497 169.221 475.156 169.562C474.864 169.854 474.475 170 473.988 170H469.535C469.049 170 468.635 169.854 468.294 169.562C468.002 169.221 467.856 168.808 467.856 168.321V166.058C465.618 169.173 462.357 170.73 458.074 170.73C453.889 170.73 450.726 169.27 448.584 166.35C446.443 163.43 445.372 159.366 445.372 154.159V135.252C445.372 134.765 445.518 134.352 445.81 134.011C446.151 133.67 446.565 133.5 447.051 133.5H451.504C451.991 133.5 452.38 133.67 452.672 134.011C453.013 134.352 453.183 134.765 453.183 135.252V155.035C453.183 157.906 453.816 160.121 455.081 161.678C456.395 163.235 458.172 164.014 460.41 164.014C462.698 164.014 464.498 163.235 465.812 161.678C467.175 160.121 467.856 157.906 467.856 155.035V135.252C467.856 134.765 468.002 134.352 468.294 134.011C468.635 133.67 469.049 133.5 469.535 133.5H473.988ZM496.76 168.321C496.76 168.808 496.59 169.221 496.249 169.562C495.957 169.854 495.568 170 495.081 170H490.628C490.142 170 489.728 169.854 489.387 169.562C489.095 169.221 488.949 168.808 488.949 168.321V120.652C488.949 120.165 489.095 119.752 489.387 119.411C489.728 119.07 490.142 118.9 490.628 118.9H495.081C495.568 118.9 495.957 119.07 496.249 119.411C496.59 119.752 496.76 120.165 496.76 120.652V137.588C499.096 134.376 502.503 132.77 506.98 132.77C511.117 132.77 514.378 134.206 516.762 137.077C519.147 139.948 520.339 144.061 520.339 149.414V153.794C520.339 159.245 519.123 163.43 516.689 166.35C514.305 169.27 511.068 170.73 506.98 170.73C502.406 170.73 498.999 169.124 496.76 165.912V168.321ZM496.76 155.035C496.76 157.712 497.442 159.877 498.804 161.532C500.167 163.187 502.114 164.014 504.644 164.014C507.175 164.014 509.122 163.187 510.484 161.532C511.847 159.877 512.528 157.712 512.528 155.035V148.538C512.528 145.861 511.847 143.696 510.484 142.041C509.122 140.338 507.175 139.486 504.644 139.486C502.162 139.486 500.216 140.313 498.804 141.968C497.442 143.623 496.76 145.74 496.76 148.319V155.035Z" fill="#74C08E"/>
</svg>
